<?xml version="1.0" standalone="no"?>
<!DOCTYPE svg PUBLIC "-//W3C//DTD SVG 20010904//EN"
 "http://www.w3.org/TR/2001/REC-SVG-20010904/DTD/svg10.dtd">
<svg version="1.0" xmlns="http://www.w3.org/2000/svg"
 width="225.000000pt" height="225.000000pt" viewBox="0 0 225.000000 225.000000"
 preserveAspectRatio="xMidYMid meet">

<g transform="translate(0.000000,225.000000) scale(0.100000,-0.100000)"
fill="#000000" stroke="none">
<path d="M900 2236 c-225 -53 -391 -141 -546 -288 -167 -158 -263 -326 -318
-552 -107 -441 63 -900 435 -1173 269 -198 639 -262 966 -167 103 30 257 100
248 114 -3 5 0 7 7 5 21 -8 164 103 253 196 269 281 369 697 259 1075 -107
372 -391 655 -773 771 -78 24 -105 26 -281 29 -135 2 -212 -1 -250 -10z m145
-83 l26 -38 -3 35 c-2 26 1 35 12 35 11 0 16 -15 18 -62 4 -75 -13 -84 -48
-28 -12 19 -23 35 -25 35 -2 0 -1 -16 2 -35 4 -27 2 -35 -9 -35 -17 0 -28 40
-28 96 0 46 22 44 55 -3z m173 26 c-2 -6 -8 -10 -13 -9 -12 1 -23 -33 -24 -78
-2 -55 -26 -33 -29 26 -2 37 -7 52 -18 52 -7 0 -14 5 -14 10 0 6 23 10 51 10
32 0 49 -4 47 -11z m-270 -30 c-7 -5 -23 -9 -35 -9 -13 0 -23 -5 -23 -11 0 -6
14 -9 32 -7 41 4 48 -18 8 -27 -41 -9 -27 -28 16 -20 26 4 34 2 34 -9 0 -8
-14 -17 -32 -21 -18 -4 -40 -8 -49 -11 -12 -3 -18 8 -27 47 -17 72 -16 76 26
86 40 11 75 -2 50 -18z m397 11 c19 -21 16 -70 -6 -97 -16 -18 -74 -16 -90 3
-19 23 -15 85 7 101 26 19 68 16 89 -7z m-504 -75 c23 -60 23 -65 5 -65 -8 0
-19 12 -25 28 l-11 27 6 -31 c7 -43 -18 -52 -46 -16 -16 20 -18 21 -11 5 15
-29 14 -43 -3 -43 -7 0 -22 25 -34 55 -19 54 -19 56 -1 65 15 9 22 4 44 -27
l25 -38 -6 48 c-7 47 -6 49 16 45 16 -2 27 -16 41 -53z m691 -11 l-4 -39 30
29 c50 47 57 21 10 -35 -52 -60 -74 -61 -70 -4 5 65 13 96 25 92 7 -2 11 -19
9 -43z m-844 -58 c37 -34 41 -51 11 -43 -28 8 -49 -2 -49 -22 0 -9 -13 -25
-27 -35 -25 -18 -29 -19 -69 -4 l-42 15 21 -29 c14 -18 17 -32 11 -38 -6 -6
-23 8 -48 41 -46 62 -38 80 24 55 l42 -17 -21 27 c-24 31 -27 44 -8 44 8 0 29
-21 47 -47 19 -26 35 -42 37 -36 2 5 0 37 -6 69 -13 87 1 90 77 20z m1006 13
c31 -25 33 -57 5 -93 -23 -29 -54 -33 -87 -10 -45 32 -12 115 49 123 4 1 18
-8 33 -20z m-394 -13 c276 -50 527 -248 644 -509 98 -218 107 -471 24 -687
-112 -291 -348 -495 -655 -566 -84 -19 -277 -19 -370 0 -349 74 -625 350 -697
698 -18 88 -21 243 -5 337 39 244 201 482 413 611 201 121 409 158 646 116z
m483 -52 c4 -4 -8 -25 -25 -47 l-32 -40 24 -19 c16 -13 20 -22 13 -29 -7 -7
-20 -2 -42 16 -17 15 -31 30 -31 34 0 9 72 91 80 91 4 0 10 -3 13 -6z m-1309
-86 c38 -44 42 -53 27 -62 -9 -6 -91 80 -91 95 0 22 32 5 64 -33z m1424 -14
c30 -21 30 -77 0 -98 -72 -50 -145 28 -83 89 28 29 51 31 83 9z m-1467 -23
c36 -36 36 -48 2 -89 l-28 -32 -48 44 -48 43 30 32 c36 39 55 39 92 2z m1549
-86 c0 -9 -7 -30 -16 -46 -15 -29 -15 -30 5 -20 11 6 23 16 26 21 7 11 25 4
25 -10 0 -16 -90 -72 -106 -66 -12 5 -11 12 7 47 l21 42 -36 -21 c-53 -31 -48
-1 6 38 45 33 68 38 68 15z m-1632 -23 c40 -29 48 -61 11 -41 -15 8 -24 7 -35
-2 -14 -11 -13 -15 5 -28 14 -11 18 -21 12 -30 -7 -11 -18 -7 -54 18 -60 41
-62 46 -37 81 27 37 49 38 98 2z m1718 -104 c10 -24 20 -46 22 -50 2 -5 -4 -8
-12 -8 -9 0 -19 7 -22 15 -5 13 -13 12 -51 -10 -54 -30 -53 -30 -53 -7 0 10
17 24 41 36 28 12 38 23 35 33 -7 16 0 33 14 33 4 0 16 -19 26 -42z m-1783 -5
c48 -55 -1 -122 -72 -97 -34 12 -49 55 -31 89 11 20 21 25 50 25 23 0 43 -7
53 -17z m1832 -103 c8 -13 -32 -59 -79 -93 l-29 -20 6 34 c4 19 2 41 -3 49 -5
8 -10 11 -10 6 0 -5 -7 -3 -15 4 -8 7 -13 16 -10 20 7 12 133 12 140 0z
m-1891 -31 c51 -40 17 -118 -47 -105 -43 9 -57 24 -57 62 0 61 53 83 104 43z
m1932 -104 c3 -25 3 -49 0 -53 -6 -6 -90 -30 -108 -32 -18 -1 -6 29 13 35 29
9 20 40 -11 40 -46 0 -28 28 25 41 74 17 73 18 81 -31z m-2016 -29 c0 -8 -7
-16 -15 -20 -20 -7 -19 -42 1 -50 47 -18 74 2 53 40 -15 29 -4 44 17 22 22
-22 21 -68 -2 -85 -44 -32 -114 -3 -114 47 0 18 8 34 22 44 28 20 38 20 38 2z
m2040 -80 c0 -12 -58 -26 -111 -26 -33 0 -21 28 14 33 72 9 97 7 97 -7z m-267
-682 c3 -4 -2 -18 -13 -32 -11 -13 -17 -29 -14 -34 4 -6 16 2 29 18 15 19 24
24 29 15 5 -7 1 -20 -9 -31 -10 -11 -14 -24 -9 -31 5 -9 14 -4 30 16 12 16 27
25 33 20 11 -6 2 -22 -45 -84 -3 -4 -104 70 -104 77 0 6 55 72 61 72 3 0 9 -3
12 -6z m-1523 -34 c27 -38 23 -62 -14 -75 -24 -8 -31 -6 -46 12 -16 20 -18 21
-35 5 -13 -12 -19 -14 -22 -5 -2 7 -5 14 -6 17 -2 5 85 75 95 75 4 1 16 -13
28 -29z m82 -91 c33 -34 33 -59 0 -74 -12 -5 -22 -15 -22 -21 0 -6 -7 -17 -15
-24 -22 -19 -44 3 -25 24 7 9 9 23 6 32 -6 15 -8 15 -26 -1 -16 -14 -23 -16
-32 -7 -9 9 -2 22 32 57 24 25 46 45 48 45 3 0 18 -14 34 -31z m1406 -47 c15
15 25 19 32 12 7 -7 -1 -20 -23 -42 l-33 -32 -43 44 c-54 55 -47 86 8 32 l37
-36 22 22z m-58 -96 c-18 -18 -98 73 -84 96 5 8 22 -4 51 -37 27 -32 39 -53
33 -59z m-1242 58 c30 -20 29 -64 -3 -98 -29 -31 -54 -33 -83 -6 -29 27 -28
65 3 95 28 29 51 31 83 9z m1155 -44 c21 -71 21 -80 3 -80 -17 0 -106 68 -106
80 0 16 20 11 47 -10 32 -25 37 -21 23 15 -11 29 -7 55 7 55 4 0 16 -27 26
-60z m-1019 -61 c-3 -6 -13 -7 -23 -4 -12 4 -23 -6 -40 -35 -12 -22 -29 -40
-37 -40 -19 0 -18 8 10 56 20 36 21 42 8 51 -9 5 -12 14 -9 20 5 8 22 3 52
-14 25 -13 42 -29 39 -34z m931 0 c20 -37 24 -54 16 -62 -12 -12 -10 -15 -44
45 -30 52 -33 68 -14 68 8 0 26 -23 42 -51z m-861 -13 c27 -11 36 -20 29 -27
-6 -6 -18 -6 -36 0 -34 13 -44 -2 -12 -17 36 -16 32 -36 -5 -29 -40 8 -47 -8
-10 -23 36 -15 42 -45 8 -34 -13 3 -35 13 -50 20 -27 14 -27 14 -11 51 8 21
19 48 24 61 5 13 12 21 16 19 5 -3 26 -12 47 -21z m796 14 c21 -14 -3 -29 -36
-22 -19 3 -24 0 -24 -16 0 -52 39 -72 60 -32 13 24 30 26 30 3 0 -48 -71 -70
-105 -33 -51 57 12 141 75 100z m-656 -60 c8 -8 -50 -70 -66 -70 -5 0 -8 -4
-8 -10 0 -5 11 -10 25 -10 16 0 25 -6 25 -15 0 -18 -12 -19 -62 -4 -21 5 -38
16 -38 23 0 7 19 26 41 42 39 27 40 29 19 34 -13 3 -26 12 -28 19 -4 11 4 13
39 7 24 -4 48 -11 53 -16z m423 -22 c-7 -4 -22 -8 -34 -8 -13 0 -23 -4 -23
-10 0 -5 16 -10 35 -10 43 0 46 -18 5 -26 -43 -9 -37 -24 10 -24 41 0 54 -15
23 -24 -71 -19 -81 -18 -87 11 -21 107 -22 101 26 110 43 9 71 -3 45 -19z
m-381 -35 c-10 -68 -16 -85 -29 -80 -23 8 -4 127 20 127 13 0 14 -8 9 -47z
m132 20 c23 -32 5 -97 -30 -109 -50 -16 -87 22 -79 81 6 50 77 68 109 28z m86
-15 l26 -33 0 33 c0 22 5 32 15 32 12 0 15 -14 15 -65 0 -78 -13 -84 -53 -22
l-28 42 6 -42 c5 -33 3 -43 -8 -43 -13 0 -27 57 -27 111 0 29 26 22 54 -13z"/>
<path d="M1274 2136 c-8 -21 -1 -59 12 -63 18 -6 45 27 42 51 -4 25 -45 35
-54 12z"/>
<path d="M640 2004 c0 -8 5 -12 10 -9 6 4 8 11 5 16 -9 14 -15 11 -15 -7z"/>
<path d="M1640 2000 c-24 -24 -26 -48 -5 -57 19 -7 55 24 55 47 0 27 -28 32
-50 10z"/>
<path d="M1045 1999 c-196 -19 -379 -103 -518 -238 -128 -123 -206 -260 -246
-427 -20 -85 -29 -224 -15 -224 21 0 117 66 127 87 15 33 71 57 97 41 14 -9
22 -9 35 2 13 11 18 10 30 -6 13 -18 14 -18 40 6 l27 25 19 -24 20 -24 39 32
c52 41 94 42 115 2 9 -19 11 -32 5 -36 -6 -3 -10 3 -10 14 0 11 -4 23 -10 26
-6 4 -11 -103 -13 -302 l-2 -308 -3 313 -2 313 -22 -3 -23 -3 -3 -309 c-2
-219 1 -313 9 -322 7 -9 7 -14 1 -14 -5 0 -15 7 -22 15 -21 25 -46 17 -86 -25
-21 -22 -46 -40 -56 -40 -9 0 -34 18 -54 40 -38 41 -69 50 -94 28 -13 -11 -13
-11 -2 2 18 21 18 584 0 578 -32 -11 -37 -52 -36 -285 0 -129 -2 -237 -5 -240
-7 -6 38 -80 62 -104 9 -8 30 -31 47 -51 17 -19 57 -56 88 -82 47 -38 60 -44
76 -36 10 5 25 10 32 9 7 0 3 -4 -10 -10 -13 -5 -20 -13 -17 -19 6 -9 101 -62
107 -59 2 1 20 -7 41 -17 36 -17 37 -17 57 4 29 31 45 28 90 -18 22 -22 47
-40 56 -40 9 0 32 18 51 40 44 51 68 51 118 0 21 -22 45 -40 52 -40 7 0 30 16
50 35 20 19 41 35 46 35 5 0 -6 -12 -23 -26 -17 -15 -29 -28 -27 -31 5 -4 98
17 107 24 3 2 -6 13 -20 24 -22 18 -22 19 -3 10 12 -6 25 -16 28 -21 8 -12 16
-12 34 -1 11 7 10 12 -5 28 -11 11 -26 29 -35 40 -9 11 -23 23 -30 25 -8 3
-11 9 -7 13 4 4 28 -13 53 -39 44 -44 64 -54 79 -39 3 4 13 8 21 9 47 7 243
151 266 196 7 15 -4 8 -33 -19 -24 -24 -51 -43 -60 -43 -10 0 -34 18 -54 39
-20 22 -46 42 -58 44 -17 4 -16 5 6 6 20 1 34 -9 58 -39 17 -22 40 -40 50 -40
10 0 31 15 47 34 15 19 40 39 55 45 48 18 154 210 181 327 19 83 9 237 -15
242 -10 2 -18 -1 -18 -7 0 -8 -6 -7 -20 1 -10 7 -23 9 -27 4 -4 -4 -10 -103
-13 -219 l-6 -212 -2 204 c-2 181 -4 205 -19 217 -10 7 -21 14 -25 14 -5 0 -8
-112 -8 -248 0 -185 3 -251 13 -261 10 -10 7 -10 -16 0 -26 12 -30 10 -70 -29
-24 -23 -51 -42 -61 -42 -11 0 -34 18 -53 40 -19 22 -41 40 -49 40 -9 0 -12 5
-9 10 4 6 18 2 36 -10 l29 -21 0 293 c0 288 0 293 -21 307 -18 11 -23 11 -31
-1 -8 -10 -9 -9 -5 3 6 18 -10 39 -30 39 -10 0 -13 -62 -13 -310 0 -202 4
-310 10 -310 6 0 5 -8 -2 -20 -14 -23 -33 -28 -21 -6 4 8 7 157 5 331 l-3 317
-27 -6 c-15 -3 -37 -8 -49 -12 -18 -5 -24 -2 -25 12 -2 11 -5 -118 -8 -286
l-5 -305 -3 303 c-1 166 -6 302 -10 302 -28 0 -32 -31 -34 -289 l-3 -266 -2
262 c-3 254 -4 263 -24 274 -11 6 -23 8 -26 5 -3 -3 -15 1 -27 9 -28 20 -34
19 -39 -7 -3 -16 -4 -14 -2 5 1 15 -3 27 -9 27 -6 0 -5 4 3 9 10 6 18 5 25 -4
6 -8 30 -20 53 -28 36 -12 44 -12 54 -1 15 18 58 18 65 0 4 -11 13 -12 37 -5
58 16 106 11 132 -15 13 -13 29 -26 35 -28 7 -2 11 -100 13 -317 2 -289 3
-315 20 -325 14 -8 20 -8 27 4 5 8 10 11 10 5 0 -5 11 3 25 19 l25 29 0 270
c0 245 -2 271 -17 283 -17 13 -17 13 0 14 9 0 17 -3 17 -7 0 -5 26 -21 57 -38
39 -20 58 -26 61 -17 5 15 70 16 107 2 l26 -10 -7 63 c-23 213 -109 399 -250
541 -144 144 -332 236 -514 251 -36 3 -76 7 -90 9 -14 1 -57 -1 -95 -5z m-248
-256 c7 -9 13 -23 13 -30 0 -18 -37 -16 -44 2 -7 18 -37 20 -54 3 -15 -15 -16
-63 -2 -89 14 -25 47 -25 55 1 7 23 45 27 45 5 0 -27 -38 -55 -75 -55 -52 0
-75 28 -75 90 0 41 5 56 26 77 21 21 32 24 62 19 20 -3 43 -13 49 -23z m181 0
c6 -9 12 -23 12 -30 0 -18 -37 -16 -44 2 -7 20 -52 19 -60 -1 -10 -26 -7 -69
7 -88 16 -21 57 -14 57 10 0 8 9 14 20 14 24 0 26 -18 4 -48 -20 -29 -85 -31
-114 -2 -22 22 -28 97 -9 131 21 41 100 48 127 12z m566 17 c14 -5 32 -22 40
-38 15 -29 15 -29 -10 -24 -14 2 -28 11 -31 18 -3 8 -16 14 -29 14 -41 0 -59
-66 -27 -102 21 -23 40 -23 53 2 10 20 50 29 50 11 0 -4 -9 -20 -21 -35 -16
-20 -29 -26 -59 -26 -50 0 -80 35 -80 92 0 77 47 114 114 88z m-467 -61 l17
-61 13 44 c8 23 14 51 15 61 2 11 11 17 26 17 26 0 27 8 -12 -108 -17 -49 -28
-68 -42 -70 -16 -2 -24 11 -47 81 -32 99 -32 97 -7 97 16 0 23 -12 37 -61z
m243 -11 l0 -73 42 0 c32 0 43 -4 43 -15 0 -11 -15 -16 -62 -18 l-63 -3 0 91
c0 83 1 90 20 90 18 0 20 -7 20 -72z m-72 -42 c3 -13 -5 -16 -37 -16 -38 0
-53 14 -36 32 13 13 70 0 73 -16z m-389 -163 c-1 -5 -1 -31 0 -60 1 -51 2 -52
33 -55 17 -2 33 -9 36 -15 3 -9 -12 -13 -52 -13 l-56 0 0 75 c0 68 2 75 20 75
11 0 19 -3 19 -7z m179 -45 c7 -7 12 -20 12 -30 0 -14 -8 -18 -35 -18 -19 0
-35 -5 -35 -11 0 -7 12 -9 35 -5 36 7 44 -1 23 -22 -29 -29 -98 -4 -98 36 0
49 66 82 98 50z m126 -10 c14 -24 -1 -35 -26 -19 -24 15 -44 1 -35 -23 7 -17
37 -22 37 -6 0 6 7 10 15 10 18 0 20 -21 3 -38 -17 -17 -63 -15 -78 3 -16 20
-16 61 0 80 17 20 69 16 84 -7z m126 3 c14 -27 13 -31 -10 -31 -11 0 -20 5
-20 10 0 6 -7 10 -15 10 -9 0 -15 -9 -15 -25 0 -26 18 -33 37 -14 18 18 35 1
22 -22 -8 -16 -19 -19 -47 -17 -47 4 -65 42 -38 82 21 32 70 36 86 7z m127 7
c35 -44 12 -98 -41 -98 -40 0 -56 15 -56 55 0 17 5 36 12 43 16 16 73 15 85 0z
m-235 -148 c-18 -11 -37 -20 -42 -20 -6 0 -10 -4 -10 -9 0 -21 -30 -18 -53 5
-15 15 -31 22 -41 18 -14 -5 -16 -30 -18 -178 l-2 -171 -3 168 c-2 92 -7 167
-12 167 -30 0 -36 -37 -41 -239 l-6 -206 -2 205 c-2 173 -5 209 -19 229 -15
23 -17 23 -30 6 -9 -13 -13 -14 -13 -5 0 9 -9 5 -25 -10 -14 -13 -27 -22 -29
-19 -4 4 30 51 36 49 2 -1 11 2 21 6 12 4 26 -1 43 -17 22 -21 27 -22 37 -9 7
8 27 20 46 27 28 10 37 10 57 -5 13 -9 24 -20 24 -25 0 -4 19 6 42 23 22 16
48 30 57 30 9 0 2 -9 -17 -20z m7 -47 c0 -29 -2 -33 -8 -18 -7 18 -4 55 5 55
2 0 4 -17 3 -37z m278 -445 c-1 -84 -3 -16 -3 152 0 168 2 236 3 153 2 -84 2
-222 0 -305z m-565 400 c-5 -71 -10 -77 -11 -15 0 31 2 57 7 57 4 0 6 -19 4
-42z m395 -266 c-1 -53 -3 -7 -3 103 0 110 2 154 3 97 2 -57 2 -147 0 -200z
m-450 -119 c-1 -76 -3 -14 -3 137 0 151 2 213 3 138 2 -76 2 -200 0 -275z
m390 340 c-2 -16 -4 -5 -4 22 0 28 2 40 4 28 2 -13 2 -35 0 -50z m340 -5 c-2
-13 -4 -3 -4 22 0 25 2 35 4 23 2 -13 2 -33 0 -45z m93 51 c0 -8 5 -7 15 1 9
7 16 11 18 9 1 -2 0 -139 -3 -304 l-5 -300 -3 293 c-1 160 -5 291 -9 291 -19
-3 -33 2 -33 11 0 6 5 10 10 10 6 0 10 -5 10 -11z m256 -249 c-1 -72 -6 -133
-9 -137 -9 -8 -9 214 -1 245 4 12 8 22 10 22 2 0 2 -59 0 -130z m-682 36 c1
-30 -2 -52 -6 -49 -5 2 -8 29 -8 60 0 31 3 53 7 50 3 -4 7 -31 7 -61z m-334
-228 c0 -5 -4 -8 -10 -8 -5 0 -10 10 -10 23 0 18 2 19 10 7 5 -8 10 -18 10
-22z m358 -64 c89 -18 187 -62 221 -98 21 -22 22 -26 8 -32 -9 -3 -14 -11 -10
-17 4 -7 -2 -8 -18 -3 -77 21 -153 29 -315 30 l-181 1 53 59 c30 33 54 63 54
68 0 13 105 9 188 -8z m-473 -94 c-21 -21 -43 -36 -48 -33 -11 7 59 73 77 73
5 0 -7 -18 -29 -40z m-95 -21 c0 -5 -4 -8 -9 -5 -5 4 -28 -14 -52 -39 -24 -25
-51 -45 -61 -45 -9 0 -37 20 -61 45 -25 25 -40 45 -35 45 6 0 26 -18 45 -40
20 -22 41 -40 48 -40 7 0 33 20 57 45 44 44 68 56 68 34z m307 -73 c6 -3 26 6
44 21 26 22 29 23 18 6 -30 -49 -85 -49 -110 0 l-12 22 24 -21 c13 -12 29 -24
36 -28z m193 24 c25 -25 52 -25 75 0 10 11 20 18 23 15 9 -9 -41 -45 -63 -45
-12 0 -32 11 -45 25 -28 30 -19 34 10 5z m-546 -52 c-16 -18 -30 -35 -31 -37
-2 -2 -5 -2 -8 1 -5 5 53 68 63 68 3 0 -7 -15 -24 -32z m305 -8 c20 -22 45
-40 55 -40 9 0 35 18 56 40 21 22 46 40 54 40 9 0 36 -18 60 -40 24 -22 49
-40 55 -40 6 0 27 16 47 35 48 49 82 47 124 -5 17 -22 38 -40 45 -40 7 0 28
12 47 26 l33 26 -33 -31 c-47 -45 -58 -42 -114 27 -25 31 -55 27 -99 -13 -22
-19 -46 -35 -55 -35 -8 0 -33 18 -55 40 -22 22 -45 40 -52 40 -7 0 -31 -18
-52 -40 -21 -22 -49 -40 -60 -40 -13 0 -38 17 -59 40 -20 22 -43 40 -50 40 -7
0 -27 -18 -45 -40 -24 -30 -39 -40 -61 -40 -29 0 -67 27 -55 39 4 3 12 -2 19
-12 21 -28 53 -20 92 23 20 22 43 40 51 40 9 0 32 -18 52 -40z m661 5 c13 -14
21 -28 18 -31 -4 -3 -14 6 -23 20 -9 13 -26 27 -38 29 -21 4 -21 4 -1 6 11 0
31 -10 44 -24z m-660 -85 c22 -22 46 -40 55 -40 9 0 33 18 54 40 21 22 46 40
56 40 10 0 37 -18 61 -40 24 -22 48 -40 53 -40 6 0 26 16 45 35 20 19 40 35
46 35 6 0 -10 -18 -35 -40 -25 -22 -53 -40 -61 -40 -9 0 -33 18 -55 40 -22 22
-46 40 -54 40 -7 0 -30 -18 -51 -40 -21 -22 -48 -40 -59 -40 -12 0 -39 18 -60
40 -21 22 -44 40 -50 40 -7 0 -26 -18 -44 -40 -20 -26 -40 -40 -54 -39 -21 0
-21 1 -2 9 11 5 35 25 54 44 19 20 40 36 48 36 7 0 31 -18 53 -40z m640 23 c0
-2 -6 -3 -12 -2 -27 3 -38 -2 -64 -28 l-26 -28 18 28 c18 30 50 48 72 40 6 -3
12 -7 12 -10z m-830 -55 c0 -15 -18 0 -41 35 l-22 32 31 -29 c18 -17 32 -34
32 -38z"/>
<path d="M988 1413 c6 -2 18 -2 25 0 6 3 1 5 -13 5 -14 0 -19 -2 -12 -5z"/>
<path d="M1354 1405 c-4 -9 -2 -21 4 -27 15 -15 44 -1 40 19 -4 23 -36 29 -44
8z"/>
<path d="M698 1236 c-16 -12 -18 -38 -18 -295 0 -274 0 -281 20 -281 20 0 20
7 20 295 0 162 -1 295 -2 295 -2 0 -11 -7 -20 -14z"/>
<path d="M457 1233 c-4 -3 -7 -134 -7 -290 l0 -283 25 0 25 0 0 273 c-1 210
-4 276 -14 290 -14 19 -19 20 -29 10z"/>
<path d="M592 1217 l-32 -22 0 -307 c0 -181 4 -308 9 -308 41 0 41 -2 43 329
l3 316 5 -302 5 -301 23 18 c22 18 22 20 22 292 l-1 273 -23 17 c-22 16 -25
16 -54 -5z"/>
<path d="M517 1223 c-4 -3 -7 -138 -7 -298 0 -279 1 -293 20 -310 20 -18 20
-17 20 298 0 258 -3 317 -13 317 -8 0 -17 -3 -20 -7z"/>
<path d="M1760 916 c0 -259 0 -264 20 -259 19 5 20 14 20 254 0 238 -1 249
-20 259 -20 11 -20 8 -20 -254z"/>
<path d="M358 1146 c-15 -11 -18 -36 -21 -182 l-3 -169 -2 167 -2 168 -25 -12
c-24 -11 -25 -15 -25 -98 0 -48 7 -109 15 -138 21 -68 74 -186 81 -179 7 7 11
457 4 457 -3 0 -13 -7 -22 -14z"/>
<path d="M1980 1063 c0 -36 2 -64 4 -62 9 11 15 129 6 129 -6 0 -10 -30 -10
-67z"/>
<path d="M263 1055 c0 -27 2 -38 4 -22 2 15 2 37 0 50 -2 12 -4 0 -4 -28z"/>
<path d="M888 329 c-10 -5 -18 -14 -18 -18 0 -9 90 -35 96 -28 5 5 -46 57 -55
57 -3 0 -14 -5 -23 -11z"/>
<path d="M1081 308 l-32 -33 37 -6 c31 -5 103 -2 111 5 6 6 -58 66 -70 66 -8
0 -29 -15 -46 -32z"/>
<path d="M1840 1832 c-15 -12 -21 -25 -17 -35 14 -36 73 -9 65 29 -5 25 -22
27 -48 6z"/>
<path d="M361 1827 c-8 -10 -4 -20 17 -40 16 -15 31 -24 35 -20 13 12 7 46
-10 59 -23 17 -28 17 -42 1z"/>
<path d="M282 1728 c-14 -14 -16 -38 -3 -38 5 0 14 7 21 15 17 20 0 41 -18 23z"/>
<path d="M203 1594 c-7 -19 21 -44 48 -44 24 0 31 26 13 45 -20 20 -53 19 -61
-1z"/>
<path d="M2040 1490 c0 -5 4 -10 9 -10 6 0 13 5 16 10 3 6 -1 10 -9 10 -9 0
-16 -4 -16 -10z"/>
<path d="M151 1467 c-16 -16 -14 -25 13 -42 29 -19 58 -10 54 18 -4 24 -50 41
-67 24z"/>
<path d="M2104 1374 c3 -9 6 -18 6 -20 0 -2 5 -4 10 -4 6 0 10 9 10 20 0 12
-7 20 -16 20 -11 0 -14 -5 -10 -16z"/>
<path d="M344 539 c-10 -17 13 -36 27 -22 12 12 4 33 -11 33 -5 0 -12 -5 -16
-11z"/>
<path d="M426 451 c-8 -12 21 -34 34 -26 7 4 5 11 -4 21 -17 16 -23 17 -30 5z"/>
<path d="M517 352 c-21 -23 -21 -36 -2 -52 13 -10 19 -9 36 6 23 20 22 57 -2
62 -8 1 -23 -6 -32 -16z"/>
<path d="M1024 166 c-11 -29 1 -61 23 -64 17 -3 24 3 29 22 10 42 -38 80 -52
42z"/>
</g>
</svg>
